<svg width="100" height="100" viewBox="0 0 100 100" fill="none" xmlns="http://www.w3.org/2000/svg">
<path d="M70.9302 19L68.9369 31.5637L100 57.187V43.6314L70.9302 19Z" fill="url(#paint0_linear_1_11)"/>
<path d="M100 43.6314L62.6246 66.2791L60.299 80L100 57.187V43.6314Z" fill="url(#paint1_linear_1_11)"/>
<path d="M60.6312 19.3306H49.6678L38.8704 79.8347H50L60.6312 19.3306Z" fill="url(#paint2_linear_1_11)"/>
<path d="M37.0432 33.0515L39.2027 19.4959L0 42.1436V55.6992L37.0432 33.0515Z" fill="url(#paint3_linear_1_11)"/>
<path d="M28.5714 79.6694L30.7309 67.7669L0 42.1436V55.6992L28.5714 79.6694Z" fill="url(#paint4_linear_1_11)"/>
<defs>
<linearGradient id="paint0_linear_1_11" x1="140.864" y1="288.789" x2="45.196" y2="-12.5118" gradientUnits="userSpaceOnUse">
<stop stop-color="white" stop-opacity="0.5"/>
<stop offset="1" stop-color="white"/>
</linearGradient>
<linearGradient id="paint1_linear_1_11" x1="-30.2326" y1="301.683" x2="111.319" y2="-11.1066" gradientUnits="userSpaceOnUse">
<stop stop-color="white" stop-opacity="0.5"/>
<stop offset="1" stop-color="white"/>
</linearGradient>
<linearGradient id="paint2_linear_1_11" x1="109.302" y1="238.038" x2="35.7011" y2="2.10036" gradientUnits="userSpaceOnUse">
<stop stop-color="white" stop-opacity="0.49"/>
<stop offset="1" stop-color="white"/>
</linearGradient>
<linearGradient id="paint3_linear_1_11" x1="-37.2093" y1="143.81" x2="64.1135" y2="-4.931" gradientUnits="userSpaceOnUse">
<stop stop-color="white" stop-opacity="0.5"/>
<stop offset="1" stop-color="white"/>
</linearGradient>
<linearGradient id="paint4_linear_1_11" x1="199.502" y1="269.612" x2="-16.1642" y2="-1.19369" gradientUnits="userSpaceOnUse">
<stop stop-color="white" stop-opacity="0.5"/>
<stop offset="1" stop-color="white"/>
</linearGradient>
</defs>
</svg>
