<svg width="100" height="100" viewBox="0 0 100 100" fill="none" xmlns="http://www.w3.org/2000/svg">
<path d="M90 45.5927V56.3212L58.2393 74.3759L60.0996 63.5175L82.4199 50.1357L65.1494 36.0419L66.7441 26.0986L90 45.5927ZM50 74.245H41.0967L49.7344 26.3603H58.5049L50 74.245ZM39.6348 37.2197L17.5029 50.6044L34.585 64.6943L32.8574 74.1142L10 55.1435V44.4159L41.3623 26.4911L39.6348 37.2197Z" fill="black"/>
<path d="M90 45.5927H98C98 43.2266 96.9526 40.9818 95.1392 39.4618L90 45.5927ZM90 56.3212L93.9535 63.276C96.4549 61.8541 98 59.1985 98 56.3212H90ZM58.2393 74.3759L50.3541 73.025C49.8319 76.0729 51.1131 79.1489 53.6446 80.9249C56.1761 82.7009 59.5044 82.8589 62.1928 81.3307L58.2393 74.3759ZM60.0996 63.5175L55.986 56.6562C53.9857 57.8554 52.6083 59.8678 52.2145 62.1666L60.0996 63.5175ZM82.4199 50.1357L86.5335 56.997C88.7688 55.6569 90.2111 53.312 90.3991 50.7127C90.5871 48.1133 89.4971 45.5853 87.4779 43.9376L82.4199 50.1357ZM65.1494 36.0419L57.2504 34.7751C56.7986 37.592 57.8811 40.4363 60.0914 42.24L65.1494 36.0419ZM66.7441 26.0986L71.8834 19.9676C69.6766 18.1178 66.6459 17.5967 63.9479 18.6032C61.25 19.6097 59.3011 21.9885 58.8451 24.8317L66.7441 26.0986ZM50 74.245V82.245C53.8786 82.245 57.1985 79.4629 57.8767 75.644L50 74.245ZM41.0967 74.245L33.2237 72.8249C32.803 75.1575 33.4382 77.5566 34.9582 79.3753C36.4782 81.194 38.7264 82.245 41.0967 82.245V74.245ZM49.7344 26.3603V18.3603C45.8639 18.3603 42.5485 21.1311 41.8614 24.9401L49.7344 26.3603ZM58.5049 26.3603L66.3816 27.7593C66.7954 25.4293 66.1565 23.0356 64.6364 21.2218C63.1164 19.408 60.8714 18.3603 58.5049 18.3603V26.3603ZM39.6348 37.2197L43.7747 44.0651C45.7852 42.8493 47.1595 40.8111 47.533 38.4915L39.6348 37.2197ZM17.5029 50.6044L13.363 43.7589C11.1439 45.101 9.71303 47.4354 9.52417 50.0218C9.33531 52.6082 10.4119 55.1258 12.4125 56.7759L17.5029 50.6044ZM34.585 64.6943L42.4537 66.1373C42.9772 63.2831 41.914 60.3692 39.6754 58.5228L34.585 64.6943ZM32.8574 74.1142L27.7482 80.2702C29.9341 82.0843 32.9181 82.6033 35.5881 81.6337C38.2582 80.6641 40.2138 78.3513 40.7262 75.5573L32.8574 74.1142ZM10 55.1435H2C2 57.5233 3.05953 59.7796 4.8908 61.2995L10 55.1435ZM10 44.4159L6.03031 37.4703C3.53803 38.8948 2 41.5453 2 44.4159H10ZM41.3623 26.4911L49.2606 27.7629C49.7504 24.7209 48.4497 21.6679 45.9164 19.9139C43.3832 18.1599 40.0677 18.0166 37.3926 19.5455L41.3623 26.4911ZM90 45.5927H82V56.3212H90H98V45.5927H90ZM90 56.3212L86.0465 49.3664L54.2857 67.4211L58.2393 74.3759L62.1928 81.3307L93.9535 63.276L90 56.3212ZM58.2393 74.3759L66.1244 75.7268L67.9847 64.8684L60.0996 63.5175L52.2145 62.1666L50.3541 73.025L58.2393 74.3759ZM60.0996 63.5175L64.2132 70.3788L86.5335 56.997L82.4199 50.1357L78.3063 43.2743L55.986 56.6562L60.0996 63.5175ZM82.4199 50.1357L87.4779 43.9376L70.2074 29.8438L65.1494 36.0419L60.0914 42.24L77.3619 56.3338L82.4199 50.1357ZM65.1494 36.0419L73.0485 37.3088L74.6432 27.3654L66.7441 26.0986L58.8451 24.8317L57.2504 34.7751L65.1494 36.0419ZM66.7441 26.0986L61.6049 32.2295L84.8608 51.7236L90 45.5927L95.1392 39.4618L71.8834 19.9676L66.7441 26.0986ZM50 74.245V66.245H41.0967V74.245V82.245H50V74.245ZM41.0967 74.245L48.9696 75.6652L57.6073 27.7804L49.7344 26.3603L41.8614 24.9401L33.2237 72.8249L41.0967 74.245ZM49.7344 26.3603V34.3603H58.5049V26.3603V18.3603H49.7344V26.3603ZM58.5049 26.3603L50.6282 24.9613L42.1233 72.846L50 74.245L57.8767 75.644L66.3816 27.7593L58.5049 26.3603ZM39.6348 37.2197L35.4948 30.3742L13.363 43.7589L17.5029 50.6044L21.6429 57.4499L43.7747 44.0651L39.6348 37.2197ZM17.5029 50.6044L12.4125 56.7759L29.4945 70.8657L34.585 64.6943L39.6754 58.5228L22.5934 44.4329L17.5029 50.6044ZM34.585 64.6943L26.7162 63.2512L24.9887 72.6711L32.8574 74.1142L40.7262 75.5573L42.4537 66.1373L34.585 64.6943ZM32.8574 74.1142L37.9666 67.9582L15.1092 48.9875L10 55.1435L4.8908 61.2995L27.7482 80.2702L32.8574 74.1142ZM10 55.1435H18V44.4159H10H2V55.1435H10ZM10 44.4159L13.9697 51.3616L45.332 33.4367L41.3623 26.4911L37.3926 19.5455L6.03031 37.4703L10 44.4159ZM41.3623 26.4911L33.464 25.2193L31.7365 35.9478L39.6348 37.2197L47.533 38.4915L49.2606 27.7629L41.3623 26.4911Z" fill="#2B303B"/>
<path d="M66.7442 26L65.1495 35.9849L90 56.3488V45.5757L66.7442 26Z" fill="url(#paint0_linear_1_6)"/>
<path d="M90 45.5757L60.0997 63.5748L58.2392 74.4793L90 56.3488V45.5757Z" fill="url(#paint1_linear_1_6)"/>
<path d="M58.505 26.2628H49.7342L41.0963 74.3479H50L58.505 26.2628Z" fill="url(#paint2_linear_1_6)"/>
<path d="M39.6346 37.1673L41.3621 26.3941L10 44.3932V55.1664L39.6346 37.1673Z" fill="url(#paint3_linear_1_6)"/>
<path d="M32.8571 74.2166L34.5847 64.7572L10 44.3932V55.1664L32.8571 74.2166Z" fill="url(#paint4_linear_1_6)"/>
<defs>
<linearGradient id="paint0_linear_1_6" x1="122.691" y1="240.413" x2="47.0686" y2="0.668582" gradientUnits="userSpaceOnUse">
<stop stop-color="white" stop-opacity="0.5"/>
<stop offset="1" stop-color="white"/>
</linearGradient>
<linearGradient id="paint1_linear_1_6" x1="-14.1861" y1="250.66" x2="97.8208" y2="1.5182" gradientUnits="userSpaceOnUse">
<stop stop-color="white" stop-opacity="0.5"/>
<stop offset="1" stop-color="white"/>
</linearGradient>
<linearGradient id="paint2_linear_1_6" x1="97.4419" y1="200.079" x2="39.2646" y2="12.3511" gradientUnits="userSpaceOnUse">
<stop stop-color="white" stop-opacity="0.49"/>
<stop offset="1" stop-color="white"/>
</linearGradient>
<linearGradient id="paint3_linear_1_6" x1="-19.7674" y1="125.192" x2="60.5625" y2="6.48815" gradientUnits="userSpaceOnUse">
<stop stop-color="white" stop-opacity="0.5"/>
<stop offset="1" stop-color="white"/>
</linearGradient>
<linearGradient id="paint4_linear_1_6" x1="169.601" y1="225.172" x2="-1.54128" y2="8.85148" gradientUnits="userSpaceOnUse">
<stop stop-color="white" stop-opacity="0.5"/>
<stop offset="1" stop-color="white"/>
</linearGradient>
</defs>
</svg>
